<svg width="112" height="24" viewBox="0 0 112 24" fill="none" xmlns="http://www.w3.org/2000/svg">
<mask id="mask0" mask-type="alpha" maskUnits="userSpaceOnUse" x="0" y="0" width="112" height="24">
<path fill-rule="evenodd" clip-rule="evenodd" d="M79.0035 0V7.8382H72.3967V5.21002C72.3967 4.32484 72.5814 3.69518 72.9489 3.32093C73.3191 2.94902 73.8665 2.76166 74.5947 2.76166H76.366V0H73.9111C72.3671 0 71.2245 0.425197 70.4893 1.27642C69.7511 2.1274 69.3816 3.28449 69.3816 4.74827V7.8382H67.689C66.184 7.8382 65.0221 7.97192 64.2051 8.23935C63.3863 8.50925 62.6335 9.04659 61.9478 9.85347V8.10563H58.9773V22.632H61.9478V15.1076C61.9478 12.3042 63.9571 10.6437 67.689 10.6437V10.6292H69.3816V22.632H72.3967V10.6292H79.0035V18.9295C79.0035 20.2446 79.3488 21.2564 80.0399 21.9684C80.733 22.6784 81.6905 23.0356 82.9116 23.0356H91.8347L91.8336 23.0339C93.0787 23.0236 94.2414 22.7531 95.3228 22.2213C96.4231 21.6792 97.3162 20.9305 98.0022 19.9751L95.8828 18.3776C95.429 19.0046 94.8317 19.4908 94.094 19.8414C93.3562 20.1886 92.579 20.3638 91.76 20.3638C90.5287 20.3638 89.4755 19.9917 88.602 19.2503C87.7283 18.5088 87.186 17.5654 86.9737 16.4228H99.0482C99.0902 16.0241 99.11 15.691 99.11 15.4214C99.11 14.4171 98.9196 13.4517 98.5399 12.5256C98.1626 11.5992 97.6447 10.7923 96.988 10.1064C96.3318 9.42084 95.535 8.86901 94.5947 8.45548C93.655 8.04479 92.6506 7.8382 91.5801 7.8382C90.1442 7.8382 88.8465 8.18805 87.6867 8.89094C86.5245 9.59099 85.6265 10.5224 84.99 11.682C84.3536 12.8419 84.0352 14.0984 84.0352 15.4504C84.0352 17.311 84.6085 18.9177 85.7538 20.2704C84.7334 20.2726 83.9173 20.2736 83.8047 20.2736C83.1086 20.2736 82.6302 20.0989 82.3734 19.7512C82.1147 19.4034 81.9862 18.8251 81.9862 18.0199V0H79.0035ZM88.7079 11.5238C89.5224 10.8577 90.4896 10.5248 91.6096 10.5248C92.7617 10.5248 93.7486 10.8652 94.5728 11.5479C95.3943 12.2288 95.8975 13.0822 96.0802 14.1083H87.0801C87.3538 13.0531 87.8963 12.1929 88.7079 11.5238ZM46.3821 8.89082C45.2201 9.59088 44.322 10.5223 43.686 11.6822C43.0491 12.8419 42.7311 14.0986 42.7311 15.4504C42.7311 17.5798 43.4804 19.3768 44.9811 20.8402C46.4809 22.304 48.3066 23.0355 50.4554 23.0355C51.7287 23.0355 52.9155 22.7635 54.0183 22.2216C55.1185 21.679 56.0119 20.9304 56.6976 19.975L54.5783 18.3775C54.1245 19.0049 53.5272 19.491 52.7894 19.8412C52.0518 20.1885 51.2746 20.3641 50.4554 20.3641C49.2242 20.3641 48.171 19.9919 47.2975 19.2501C46.4244 18.5087 45.8815 17.5653 45.6691 16.4227H57.7438C57.7857 16.024 57.8054 15.6913 57.8054 15.4212C57.8054 14.417 57.6152 13.452 57.2353 12.5256C56.8581 11.5991 56.34 10.7922 55.684 10.1063C55.0273 9.42073 54.2304 8.86889 53.2906 8.45572C52.3504 8.04467 51.3466 7.83809 50.2756 7.83809C48.8398 7.83809 47.542 8.18829 46.3821 8.89082ZM47.4038 11.5237C48.2181 10.858 49.185 10.5246 50.305 10.5246C51.4574 10.5246 52.4441 10.8651 53.2684 11.5481C54.0897 12.2291 54.5929 13.0824 54.7758 14.1082H45.7756C46.0493 13.0533 46.5918 12.1926 47.4038 11.5237ZM17.8618 8.86665C16.6745 9.55432 15.7399 10.481 15.0589 11.6432C14.3754 12.8077 14.0352 14.0769 14.0352 15.4502C14.0352 15.5297 14.0402 15.6075 14.0423 15.6857C13.3546 16.8131 11.0743 20.2738 7.90639 20.2738C6.55196 20.2738 5.40714 19.8022 4.46701 18.8613C3.52724 17.9231 3.05813 16.7947 3.05813 15.4819C3.05813 14.1668 3.5222 13.0291 4.45238 12.0609C5.38243 11.0959 6.51239 10.6148 7.84464 10.6148C8.68356 10.6148 9.46576 10.8165 10.1862 11.2176C10.5742 11.4341 10.9189 11.6888 11.2208 11.9813L13.062 9.81786C12.6309 9.43653 12.1522 9.1 11.6272 8.8084C10.4601 8.16164 9.19943 7.83832 7.84464 7.83832C6.43097 7.83832 5.13085 8.1811 3.94406 8.86665C2.75763 9.55432 1.82506 10.481 1.14166 11.6432C0.46055 12.8077 0.119873 14.0769 0.119873 15.4502C0.119873 16.8241 0.465586 18.0929 1.15617 19.2575C1.8494 20.4223 2.78905 21.3438 3.97632 22.0195C5.16311 22.6979 6.45315 23.0358 7.84464 23.0358C11.1396 23.0358 13.5451 20.9683 15.0353 19.1878C15.0486 19.2108 15.0599 19.2348 15.0737 19.2575C15.7644 20.4223 16.7045 21.3438 17.8913 22.0195C19.0777 22.6979 20.3682 23.0358 21.7621 23.0358C23.166 23.0358 24.4662 22.6955 25.6627 22.012C26.8592 21.3314 27.8069 20.4075 28.505 19.2428C29.201 18.0784 29.5487 16.8142 29.5487 15.4502C29.5487 14.0769 29.201 12.8052 28.505 11.6359C27.8069 10.4666 26.8592 9.54229 25.6627 8.85957C24.4662 8.17862 23.166 7.83832 21.7621 7.83832C20.3486 7.83832 19.0481 8.1811 17.8618 8.86665ZM18.377 18.8542C17.4422 17.9111 16.976 16.7852 16.976 15.4818C16.976 14.1668 17.4396 13.0291 18.3672 12.0609C19.2978 11.0959 20.4396 10.6148 21.792 10.6148C23.1266 10.6148 24.2591 11.0864 25.1937 12.0319C26.1291 12.9778 26.5956 14.1084 26.5956 15.4211C26.5956 16.7339 26.1316 17.8718 25.2014 18.8323C24.2713 19.7927 23.1362 20.2738 21.792 20.2738C20.4497 20.2738 19.3099 19.7997 18.377 18.8542ZM107.829 8.10563L104.723 12.601L101.616 8.10563H98.2684L103.055 14.9884L97.4445 23.0356H100.775L104.723 17.3758L106.544 14.7298L111.177 8.10563H107.829ZM40.5696 8.10563L36.1015 18.9588L31.6926 8.10563H28.4653L34.5571 22.632H37.7521L43.7964 8.10563H40.5696Z" fill="white"/>
</mask>
<g mask="url(#mask0)">
<path fill-rule="evenodd" clip-rule="evenodd" d="M-1.07935 23.326H112.376V-2.06802H-1.07935V23.326Z" fill="#2D3144"/>
</g>
<path fill-rule="evenodd" clip-rule="evenodd" d="M105.58 19.5271L108.612 23.9247H111.931L108.847 19.5271H105.58Z" fill="#F0814D"/>
</svg>
